<?xml version="1.0" encoding="UTF-8" standalone="no"?>
<!DOCTYPE svg PUBLIC "-//W3C//DTD SVG 1.1//EN"
 "http://www.w3.org/Graphics/SVG/1.1/DTD/svg11.dtd">
<!-- Generated by graphviz version 2.43.0 (0)
 -->
<!-- Pages: 1 -->
<svg width="302pt" height="260pt"
 viewBox="0.00 0.00 302.44 260.00" xmlns="http://www.w3.org/2000/svg" xmlns:xlink="http://www.w3.org/1999/xlink">
<g id="graph0" class="graph" transform="scale(1 1) rotate(0) translate(4 256)">
<polygon fill="white" stroke="transparent" points="-4,4 -4,-256 298.44,-256 298.44,4 -4,4"/>
<!-- 0 -->
<g id="node1" class="node">
<title>0</title>
<ellipse fill="none" stroke="black" cx="44.85" cy="-234" rx="44.69" ry="18"/>
<text text-anchor="middle" x="44.85" y="-230.3" font-family="Times,serif" font-size="14.00">0: start</text>
</g>
<!-- 5 -->
<g id="node2" class="node">
<title>5</title>
<ellipse fill="none" stroke="black" cx="44.85" cy="-162" rx="42.49" ry="18"/>
<text text-anchor="middle" x="44.85" y="-158.3" font-family="Times,serif" font-size="14.00">0: stop</text>
</g>
<!-- 0&#45;&gt;5 -->
<g id="edge1" class="edge">
<title>0&#45;&gt;5</title>
<path fill="none" stroke="black" d="M44.85,-215.7C44.85,-207.98 44.85,-198.71 44.85,-190.11"/>
<polygon fill="black" stroke="black" points="48.35,-190.1 44.85,-180.1 41.35,-190.1 48.35,-190.1"/>
</g>
<!-- 1 -->
<g id="node3" class="node">
<title>1</title>
<ellipse fill="none" stroke="black" cx="200.85" cy="-234" rx="93.68" ry="18"/>
<text text-anchor="middle" x="200.85" y="-230.3" font-family="Times,serif" font-size="14.00">1: enter: add(x, y)</text>
</g>
<!-- 3 -->
<g id="node4" class="node">
<title>3</title>
<ellipse fill="none" stroke="black" cx="200.85" cy="-162" rx="72.29" ry="18"/>
<text text-anchor="middle" x="200.85" y="-158.3" font-family="Times,serif" font-size="14.00">2: z = (x + y)</text>
</g>
<!-- 1&#45;&gt;3 -->
<g id="edge2" class="edge">
<title>1&#45;&gt;3</title>
<path fill="none" stroke="black" d="M200.85,-215.7C200.85,-207.98 200.85,-198.71 200.85,-190.11"/>
<polygon fill="black" stroke="black" points="204.35,-190.1 200.85,-180.1 197.35,-190.1 204.35,-190.1"/>
</g>
<!-- 4 -->
<g id="node6" class="node">
<title>4</title>
<ellipse fill="none" stroke="black" cx="200.85" cy="-90" rx="59.59" ry="18"/>
<text text-anchor="middle" x="200.85" y="-86.3" font-family="Times,serif" font-size="14.00">3: return z</text>
</g>
<!-- 3&#45;&gt;4 -->
<g id="edge4" class="edge">
<title>3&#45;&gt;4</title>
<path fill="none" stroke="black" d="M200.85,-143.7C200.85,-135.98 200.85,-126.71 200.85,-118.11"/>
<polygon fill="black" stroke="black" points="204.35,-118.1 200.85,-108.1 197.35,-118.1 204.35,-118.1"/>
</g>
<!-- 2 -->
<g id="node5" class="node">
<title>2</title>
<ellipse fill="none" stroke="black" cx="200.85" cy="-18" rx="86.38" ry="18"/>
<text text-anchor="middle" x="200.85" y="-14.3" font-family="Times,serif" font-size="14.00">1: exit: add(x, y)</text>
</g>
<!-- 4&#45;&gt;2 -->
<g id="edge3" class="edge">
<title>4&#45;&gt;2</title>
<path fill="none" stroke="black" d="M200.85,-71.7C200.85,-63.98 200.85,-54.71 200.85,-46.11"/>
<polygon fill="black" stroke="black" points="204.35,-46.1 200.85,-36.1 197.35,-46.1 204.35,-46.1"/>
</g>
</g>
</svg>
